<?xml version="1.0" encoding="UTF-8"?>
<svg version="1.1" viewBox="0 0 2048 1378" width="5262" height="3543" xmlns="http://www.w3.org/2000/svg">
<path transform="translate(0)" d="m0 0h2048v1378h-2048z" fill="#383A40"/>
<path transform="translate(1145,491)" d="m0 0h80l5 3 4 5v10l-10 14 19 2 15 4 14 7 11 9 9 11 8 14 6 15 6 21 6 36 6 46 2 20v13l-3 13-7 13-7 7-10 6-10 4-10 2h-12l-3 9-8 14-12 13-11 9-16 8-13 4-13 2h-11l-14-2-18-6-15-9-13-12-10-14-7-15h-66l-7 6-14 7-9 2h-54l-2 5-9 11-11 10-15 9-18 6-14 2h-10l-14-2-16-5-11-6-12-9-9-9-7-10v-2h-52l-13-4-10-6-9-9-7-14-2-9v-10l4-16 11-33 12-30 7-14 7-9 10-10 13-8 19-7 17-3 10-1 9-10 7-8 11-10 13-10 15-10 25-13 22-8 21-5 16-2 127-1 7-8 11-9 15-8 17-5z" fill="#00EAE9"/>
<path transform="translate(899,541)" d="m0 0h2l6 7 2 2 2 1 1 6-3 1v2l2 1-8 4-1-2-2 3 10-3 15-6 21-6 13-2 12-1h94l-2 4-9 11-9 10-9 11-10 11-3 5-103 1 5 3-1-3h15l2 4-3-1 3 3 3 6-1 5 2 5h-10l-2-3-2 2 3 1 98 1v1l-213 1-18 3-13 5-10 6-7 7-8 15-13 34-11 34v10l4 8 6 5 5 2 40 1-2-16 1-15 4-16 8-16 7-10 6-7 14-11 16-8 14-4 6-1h22l17 4 14 6 13 9 13 13 9 14 6 14 3 14v25l-1 5 43-1 7-2 4 1h2 3l5 7v5 3l-1 6-11 5-9 2h-54l-2 5-9 11-11 10-15 9-18 6-14 2h-10l-14-2-16-5-11-6-12-9-9-9-7-10v-2h-52l-13-4-10-6-9-9-7-14-2-9v-10l4-16 11-33 12-30 7-14 7-9 10-10 13-8 19-7 17-3 10-1 9-10 7-8 11-10 13-10 15-10 10-5 3 1h3v-3z" fill="#00DAF2"/>
<path transform="translate(1144,517)" d="m0 0h51l-4 7-9 11-12 16-64 84-15 20-14 18-12 16-10 13-16 21-15 20-7 8-10 5h-43v-30l-4-17-8-16-8-11-11-11-14-9-15-6-14-3h-22l-17 4-14 6-13 9-7 6-8 10-8 14-5 13-2 10-1 15 1 16h-40l-8-4-6-7-2-5v-10l13-40 12-30 7-13 8-8 10-6 13-5 18-3 213-1 6-4 9-11 10-11 9-11 9-10 9-11 10-11 18-22 12-9 12-5z" fill="#383A40"/>
<path transform="translate(1204,548)" d="m0 0h14l20 2 13 4 10 6 9 9 8 14 7 21 5 24 7 50 3 27v16l-3 8-4 5-10 5-11 1-3-21-5-15-8-15-11-13-10-8-14-8-14-5-11-2h-22l-17 4-14 6-13 9-12 12-9 14-6 15-3 13-1 15h-41l2-4 12-16 80-105 15-20 14-18 12-16 10-13z" fill="#383A40"/>
<path transform="translate(872,682)" d="m0 0h14l12 3 14 7 9 8 7 10 5 11 2 9v17l-4 14-6 10-9 10-10 7-12 5-5 1h-20l-13-4-12-7-10-10-7-12-4-13v-19l4-13 6-11 8-9 10-7 12-5z" fill="#383A40"/>
<path transform="translate(1178,682)" d="m0 0h14l13 3 13 7 10 9 7 10 5 13 1 4v20l-4 13-7 12-10 10-10 6-10 4-5 1h-20l-13-4-10-6-10-9-7-10-5-14-1-5v-16l4-14 6-11 6-7 12-9 12-5z" fill="#383A40"/>
<path transform="translate(971,548)" d="m0 0h94l-2 4-9 11-9 10-9 11-10 11-3 4h-165l5-6 17-13 16-10 16-8 19-7 21-5z" fill="#383A40"/>
<path transform="translate(1106,878)" d="m0 0h16l13 4 8 6 7 8 5 12 2 9v19l-3 13-5 10-7 8-9 5-10 3h-18l-10-3-9-5-7-7-5-10-3-14v-20l4-15 6-10 8-7 8-4z" fill="#F5F5F5"/>
<path transform="translate(815,878)" d="m0 0h14l12 3 10 6 7 8 4 8 3 11 1 18-1 1h-60l2 11 5 7 8 3 11-1 6-4 4-4h23l-3 9-6 9-9 7-9 4-5 1h-20l-11-4-6-4-7-7-6-12-3-16v-11l3-16 6-12 8-8 10-5z" fill="#F5F5F5"/>
<path transform="translate(688,878)" d="m0 0h14l12 3 10 6 7 8 4 8 3 11 1 18-1 1h-60l2 11 5 7 8 3 11-1 6-4 4-4h23l-3 9-6 9-9 7-9 4-5 1h-20l-11-4-6-4-7-7-6-12-3-16v-11l3-16 6-12 8-8 10-5z" fill="#F5F5F5"/>
<path transform="translate(1286,878)" d="m0 0h17l14 3 10 6 6 10v50l-4 11-7 8-9 6-12 3h-24l-10-4-7-5-5-10-1-5v-10l3-10 7-8 11-5 15-3 14-3 4-2 1-7-4-3-4-1h-13l-6 2-1 3h-24l1-7 6-9 8-6 8-3z" fill="#F5F5F5"/>
<path transform="translate(908,878)" d="m0 0h15l12 3 10 6 6 7 6 12v3h-25l-4-6-6-3h-11l-6 3-4 5-2 6-1 7v11l2 10 3 6 5 4 6 2 10-1 6-3 5-5h23l-4 11-7 9-11 7-10 3h-20l-10-3-10-7-8-11-4-12-1-7v-18l4-16 7-11 9-7 10-4z" fill="#F5F5F5"/>
<path transform="translate(1200,878)" d="m0 0h14l12 3 10 6 7 8 5 10v4h-24l-6-7-5-2h-11l-7 4-4 8-1 5v19l3 10 4 5 8 3 11-1 6-4 4-4h23l-1 5-5 10-7 7-14 7-4 1h-21l-11-4-8-6-7-8-5-13-1-5v-26l4-13 6-9 9-8 10-4z" fill="#F5F5F5"/>
<path transform="translate(874,702)" d="m0 0h10l10 3 9 6 7 8 4 9 1 4v13l-4 11-7 9-9 6-8 3h-16l-10-4-8-6-6-8-4-11v-14l4-11 9-10 8-5z" fill="#00DAF3"/>
<path transform="translate(1180,702)" d="m0 0h10l10 3 8 5 7 7 5 10 1 4v15l-4 10-6 8-8 6-10 4h-16l-12-5-7-6-6-9-3-10v-12l4-11 6-8 7-6 9-4z" fill="#00EAE9"/>
<path transform="translate(968,853)" d="m0 0h16l6 4 2 4v19h14l1 1-1 10-4 5-5 2h-5l1 53 3 3 10 1 1 1v17l-1 1h-22l-9-2-5-4-2-5z" fill="#F5F5F5"/>
<path transform="translate(747,853)" d="m0 0h16l5 3 3 4 1 3v110l-1 1h-24z" fill="#F5F5F5"/>
<path transform="translate(1385,880)" d="m0 0h10l1 1v24l-17 2-7 4-3 7-1 55-1 1h-24v-58l4-13 8-11 9-6 10-4z" fill="#F5F5F5"/>
<path transform="translate(1057,880)" d="m0 0h10v25l-16 2-6 3-3 4-2 8-1 52h-24l-1-1v-50l2-12 5-12 8-9 8-5 13-4z" fill="#F5F5F5"/>
<path transform="translate(1110,899)" d="m0 0h9l6 4 5 6 2 5 1 6v12l-2 10-4 7-6 5-2 1h-10l-8-5-4-7-2-10v-15l3-10 5-6z" fill="#383A40"/>
<path transform="translate(1309,927)" d="m0 0h1v15l-4 8-7 5-4 1h-10l-5-3-3-6 2-9 8-5 20-5z" fill="#383A40"/>
<path transform="translate(817,899)" d="m0 0h11l6 3 4 5 2 10h-35l1-8 4-6 4-3z" fill="#383A40"/>
<path transform="translate(690,899)" d="m0 0h11l6 3 4 5 2 10h-35l1-8 4-6 4-3z" fill="#383A40"/>
<path transform="translate(1181,728)" d="m0 0h8l6 5 1 7-3 6-6 3-7-1-5-6v-8l4-5z" fill="#383A40"/>
<path transform="translate(875,728)" d="m0 0h8l5 4 1 2v9l-5 5-7 1-6-3-3-7 2-7z" fill="#383A40"/>
<path transform="translate(900,539)" d="m0 0h2v2l-9 4 1 3h-7l1-3z" fill="#00E6EB"/>
</svg>
